<svg xmlns="http://www.w3.org/2000/svg" viewBox="0 0 180 92"><path d="M81 50.2c-4 0-7.2 1.3-9.4 3.8-2.3 2.5-3.4 6.1-3.4 10.6 0 2.9.5 5.5 1.6 7.7 1 2.2 2.5 3.9 4.5 5s4.1 1.8 6.6 1.8c4 0 7.2-1.3 9.5-3.8s3.4-6.1 3.4-10.6c0-4.4-1.1-7.9-3.4-10.5s-5.5-4-9.4-4zm6.2 22.5c-1.4 1.9-3.5 2.8-6.3 2.8s-4.8-.9-6.3-2.8-2.1-4.6-2.1-8.1c0-3.6.7-6.3 2.1-8.1 1.4-1.8 3.5-2.7 6.2-2.7 2.8 0 4.9.9 6.3 2.8s2.1 4.5 2.1 8.1c.2 3.4-.6 6.1-2 8zM110.3 50.2c-3.4 0-5.9.8-7.8 2.5s-2.7 4-2.7 7c0 1.8.5 3.5 1.4 4.9s2.1 2.4 3.5 3c-1.2.7-2 1.4-2.6 2.2s-.8 1.7-.8 2.7c0 .9.2 1.7.7 2.4s1.1 1.2 1.8 1.5c-2 .4-3.5 1.3-4.6 2.5s-1.6 2.7-1.6 4.4c0 2.5 1 4.4 3 5.7s4.8 2 8.4 2c4.7 0 8.3-.8 10.8-2.4s3.7-4 3.7-7c0-2.4-.8-4.3-2.4-5.5s-3.9-1.9-6.9-1.9h-4.9c-1.5 0-2.6-.2-3.2-.5s-.9-.9-.9-1.7c0-1.4.9-2.6 2.7-3.6.7.1 1.5.2 2.3.2 3.2 0 5.8-.8 7.7-2.4s2.8-3.8 2.8-6.5c0-1.2-.2-2.3-.6-3.2s-.8-1.7-1.3-2.3l5.2-.6v-2.7h-9.6c-1.3-.6-2.6-.7-4.1-.7zm-2.5 27.7h5.1c2.6 0 4.3.3 5.3.9s1.4 1.6 1.4 3.1c0 1.8-.9 3.2-2.6 4.3s-4.3 1.6-7.9 1.6c-2.4 0-4.2-.4-5.5-1.2s-1.9-1.9-1.9-3.4c0-1.7.5-3 1.6-3.9s2.6-1.4 4.5-1.4zm8.6-18.4c0 4-2.1 6-6.2 6-2 0-3.5-.5-4.6-1.5-1.1-1-1.7-2.5-1.7-4.4 0-2.1.5-3.7 1.6-4.7s2.6-1.6 4.6-1.6c4.2-.1 6.3 2 6.3 6.2zM140.9 50.2c-4 0-7.2 1.3-9.4 3.8s-3.4 6.1-3.4 10.6c0 2.9.5 5.5 1.6 7.7s2.5 3.9 4.5 5 4.1 1.8 6.6 1.8c4 0 7.2-1.3 9.5-3.8s3.4-6.1 3.4-10.6c0-4.4-1.1-7.9-3.4-10.5s-5.5-4-9.4-4zm6.2 22.5c-1.4 1.9-3.5 2.8-6.3 2.8s-4.8-.9-6.3-2.8-2.1-4.6-2.1-8.1c0-3.6.7-6.3 2.1-8.1 1.4-1.8 3.5-2.7 6.2-2.7 2.8 0 4.9.9 6.3 2.8s2.1 4.5 2.1 8.1c.2 3.4-.6 6.1-2 8z"/><path d="M139.4 39V24.6c0-2.7.8-5 2.4-6.8s3.5-2.7 5.8-2.7c.9 0 1.9.1 3 .4l.6-3.9c-1-.2-2.1-.3-3.3-.3-1.7 0-3.3.5-4.8 1.5s-2.7 2.4-3.7 4.2h-.2l-.5-5.2h-3.5V39h-8.9V11.7H122v14.6c0 3.6-.7 6.2-2 7.8-1.3 1.6-3.5 2.4-6.4 2.4-2.2 0-3.8-.6-4.8-1.7s-1.5-2.8-1.5-5.1v-18H103v18.2c0 3.5.8 6.1 2.5 7.7.6.6 1.3 1 2.1 1.4H88.5c1.5-.6 2.9-1.6 4-2.8 2.3-2.5 3.4-6.1 3.4-10.6 0-4.4-1.1-7.9-3.4-10.5s-5.4-3.9-9.3-3.9c-4 0-7.2 1.3-9.4 3.8-2.3 2.5-3.4 6.1-3.4 10.6 0 2.9.5 5.5 1.6 7.7 1 2.2 2.5 3.9 4.5 5 .5.3 1 .5 1.5.7H55V25.1L67.4 2.4h-4.7L52.8 21 43 2.4h-4.7l12.4 22.9V39H2.8v3h40.5v36.5H64v-3.9H47.7V42h129.5v-3h-37.8zm-62.6-5.3c-1.4-1.9-2.1-4.6-2.1-8.1 0-3.6.7-6.3 2.1-8.1 1.4-1.8 3.5-2.7 6.2-2.7 2.8 0 4.9.9 6.3 2.8 1.4 1.8 2.1 4.5 2.1 8.1 0 3.6-.7 6.3-2.1 8.1s-3.5 2.8-6.3 2.8-4.8-1.1-6.2-2.9zm41.5 5.2c1.5-.7 2.7-1.8 3.6-3.1h.2l.5 3.2H118c.2 0 .3-.1.3-.1z"/></svg>